<svg xmlns="http://www.w3.org/2000/svg" viewBox="0 0 512 512">
  <path fill="#ffcc00" d="M256 448l-30-28C120 324 56 266 56 194 56 136 102 90 160 90c32 0 63 15 84 39 21-24 52-39 84-39 58 0 104 46 104 104 0 72-64 130-170 226l-30 28z"/>
  <path fill="#262c7c" d="M160 280c20 10 60 30 120 10 40-15 60-40 80-60 5-5 10-10 15-10s10 5 10 10-5 15-15 25c-20 20-50 50-100 65-60 20-110 0-130-10-10-5-15-15-10-25s15-15 30-5z"/>
  <path fill="#262c7c" d="M352 340c-20 10-60 30-120 10-40-15-60-40-80-60-5-5-10-10-15-10s-10 5-10 10 5 15 15 25c20 20 50 50 100 65 60 20 110 0 130-10 10-5 15-15 10-25s-15-15-30-5z"/>
</svg>
